# xmcd CD database file
#
# Track frame offsets:
#	182
#	27895
#	53907
#	76670
#	102507
#	181182
#	212892
#	256407
#
# Disc length: 3666 seconds
#
# Revision: 0
# Processed by: cddbd v1.5.2PL0 Copyright (c) Steve Scherf et al.
# Submitted via: CDex 1.51
#
DISCID=630e5008
DTITLE=Cyrille Anderw - X-Man
DYEAR=1993
DGENRE=Jazz
TTITLE0=Answere me
TTITLE1=Novo
TTITLE2=A simple melody
TTITLE3=E- Squat
TTITLE4=5:05
TTITLE5=Lydia
TTITLE6=X-Man
TTITLE7=Akan
EXTD=YEAR: 1993
EXTT0=
EXTT1=
EXTT2=
EXTT3=
EXTT4=
EXTT5=
EXTT6=
EXTT7=
PLAYORDER=
